<?xml version="1.0" standalone="no"?>
<!DOCTYPE svg PUBLIC "-//W3C//DTD SVG 20010904//EN"
 "http://www.w3.org/TR/2001/REC-SVG-20010904/DTD/svg10.dtd">
<svg version="1.0" xmlns="http://www.w3.org/2000/svg"
 width="50.000000pt" height="50.000000pt" viewBox="0 0 50.000000 50.000000"
 preserveAspectRatio="xMidYMid meet">

<g transform="translate(0.000000,50.000000) scale(0.100000,-0.100000)"
fill="##d6001c" stroke="none">
<path d="M90 461 c0 -19 3 -21 14 -12 9 8 53 11 130 9 l116 -3 -135 -213 c-74
-117 -135 -215 -135 -218 0 -2 76 -4 169 -4 166 0 169 0 175 23 11 41 6 46
-19 22 -23 -24 -30 -25 -145 -25 -66 0 -120 2 -120 4 0 3 57 94 126 202 69
109 130 206 135 216 9 16 -2 17 -151 20 l-160 3 0 -24z"/>
</g>
</svg>
